<svg xmlns="http://www.w3.org/2000/svg" width="55" height="56" viewBox="0 0 55 56">
  <g id="facebook" transform="translate(0.2 0.469)">
    <g id="bg" transform="translate(-0.2 -0.469)" fill="none" stroke="#95989a" stroke-width="1">
      <ellipse cx="27.5" cy="28" rx="27.5" ry="28" stroke="none"/>
      <ellipse cx="27.5" cy="28" rx="27" ry="27.5" fill="none"/>
    </g>
    <g id="facebook-logo" transform="translate(22.964 20.174)">
      <path id="Path_1" data-name="Path 1" d="M30.4,0,28.328,0A3.644,3.644,0,0,0,24.49,3.938V5.754H22.4a.326.326,0,0,0-.326.326V8.711a.326.326,0,0,0,.326.326H24.49v6.638a.326.326,0,0,0,.326.326h2.722a.326.326,0,0,0,.326-.326V9.037H30.3a.326.326,0,0,0,.326-.326V6.08a.327.327,0,0,0-.326-.326h-2.44V4.215c0-.74.176-1.115,1.14-1.115h1.4a.326.326,0,0,0,.326-.326V.33A.326.326,0,0,0,30.4,0Z" transform="translate(-22.077 0)" fill="#95989a"/>
    </g>
  </g>
</svg>
