<svg xmlns="http://www.w3.org/2000/svg" width="55" height="56" viewBox="0 0 55 56">
  <g id="instagram" transform="translate(0.253 0.469)">
    <g id="bg" transform="translate(-0.253 -0.469)" fill="none" stroke="#95989a" stroke-width="1">
      <ellipse cx="27.5" cy="28" rx="27.5" ry="28" stroke="none"/>
      <ellipse cx="27.5" cy="28" rx="27" ry="27.5" fill="none"/>
    </g>
    <g id="instagram-logo" transform="translate(19.55 20.174)">
      <path id="Path_3" data-name="Path 3" d="M11.892,0H4.533A4.538,4.538,0,0,0,0,4.533v7.36a4.538,4.538,0,0,0,4.533,4.533h7.36a4.538,4.538,0,0,0,4.533-4.533V4.533A4.538,4.538,0,0,0,11.892,0Zm3.076,11.892a3.079,3.079,0,0,1-3.075,3.075H4.533a3.079,3.079,0,0,1-3.075-3.075V4.533A3.079,3.079,0,0,1,4.533,1.457h7.36a3.079,3.079,0,0,1,3.075,3.075v7.36Z" fill="#95989a"/>
      <path id="Path_4" data-name="Path 4" d="M45.2,40.97A4.232,4.232,0,1,0,49.433,45.2,4.237,4.237,0,0,0,45.2,40.97Zm0,7.007A2.775,2.775,0,1,1,47.975,45.2,2.778,2.778,0,0,1,45.2,47.977Z" transform="translate(-36.988 -36.99)" fill="#95989a"/>
      <path id="Path_5" data-name="Path 5" d="M119.99,28.251a1.068,1.068,0,1,0,.756.313A1.073,1.073,0,0,0,119.99,28.251Z" transform="translate(-107.367 -25.506)" fill="#95989a"/>
    </g>
  </g>
</svg>
