<svg xmlns="http://www.w3.org/2000/svg" xmlns:xlink="http://www.w3.org/1999/xlink" width="409.647" height="59.087" viewBox="0 0 409.647 59.087">
  <defs>
    <clipPath id="clip-path">
      <path id="Path_17" data-name="Path 17" d="M0,0H409.647V-59.087H0Z" fill="none"/>
    </clipPath>
  </defs>
  <g id="Group_17" data-name="Group 17" transform="translate(0 59.087)">
    <g id="Group_16" data-name="Group 16" clip-path="url(#clip-path)">
      <g id="Group_3" data-name="Group 3" transform="translate(402.846 -44.854)">
        <path id="Path_4" data-name="Path 4" d="M0,0V11.788H-15.438V0c-3.052.413-6.8,3.731-6.8,9.95V30.62h6.8V18.832H0V30.62c3.05-.413,6.8-3.731,6.8-9.95V0Z" fill="#fff"/>
      </g>
      <g id="Group_4" data-name="Group 4" transform="translate(165.942 -31.841)">
        <path id="Path_5" data-name="Path 5" d="M0,0V17.607H12.3q16.745,0,16.747-13.01V-13.011H16.749Q0-13.011,0,0M22.241,5.123q0,5.438-9.652,5.439H6.8V-.531q0-5.438,9.651-5.435h5.788Z" fill="#fff"/>
      </g>
      <g id="Group_5" data-name="Group 5" transform="translate(224.993 -43.479)">
        <path id="Path_6" data-name="Path 6" d="M0,0C-2.233-1.047-5.642-1.38-10.625-1.4H-23.264V29.272h6.8V17.433h1.089L-3.939,29.272H5.706L-5.933,17.254h0q11.7-1.135,11.7-7.865v-2.7Q5.771,1.964,0,0M-1.029,8.464c0,.971-.653,1.463-1.861,1.706a14.847,14.847,0,0,1-2.5.218h-11.02V5.654h5.583c6.5,0,9.8-.278,9.8,1.978Z" fill="#fff"/>
      </g>
      <g id="Group_6" data-name="Group 6" transform="translate(266.53 -27.355)">
        <path id="Path_7" data-name="Path 7" d="M0,0V-4.376q0-13.131-16.9-13.13h-12.12V13.13H-16.9Q0,13.13,0,0M-6.8.6c0,3.658-3.285,5.49-9.779,5.49h-5.642V-10.462h5.642c6.494,0,9.779,1.827,9.779,5.485Z" fill="#fff"/>
      </g>
      <g id="Group_7" data-name="Group 7" transform="translate(93.007 -31.841)">
        <path id="Path_8" data-name="Path 8" d="M0,0V5.82H22.2a4.2,4.2,0,0,1-.992,2.27c-.04.047-.082.091-.12.134l-.126.131c-.056.054-.114.111-.175.165a3.7,3.7,0,0,1-.471.369,5.278,5.278,0,0,1-.827.487q-.3.147-.632.279c-.113.04-.227.084-.343.124-.234.084-.477.155-.73.222-.13.033-.259.067-.392.1s-.266.061-.406.088c-.113.023-.226.043-.343.063-.172.03-.344.061-.522.084-.146.024-.3.041-.447.061l-.032,0c-.147.02-.3.033-.449.047s-.324.03-.489.044c-.2.013-.408.026-.616.037s-.441.02-.668.023c-.266.01-.542.014-.82.014H0v7.045H12.294q16.745,0,16.746-13.01V-1.226H6.848a.3.3,0,0,1,.006-.054.729.729,0,0,1,.02-.124c.006-.05.016-.1.025-.151a3.492,3.492,0,0,1,.113-.456c.008-.027.017-.058.027-.084A1.33,1.33,0,0,1,7.1-2.263c.013-.037.029-.078.045-.115a3.282,3.282,0,0,1,.172-.365,2.824,2.824,0,0,1,.169-.289,1.2,1.2,0,0,1,.078-.118A.2.2,0,0,1,7.6-3.2c.026-.037.052-.075.082-.112a3.977,3.977,0,0,1,.356-.409c.049-.054.1-.1.155-.151s.124-.111.189-.161A2.568,2.568,0,0,1,8.6-4.211c.022-.02.045-.034.067-.051A6.351,6.351,0,0,1,9.84-4.92c.11-.05.22-.1.333-.141.137-.05.273-.1.412-.144.12-.041.247-.081.373-.118a.628.628,0,0,1,.082-.023c.12-.037.239-.067.366-.1h.006c.13-.033.259-.064.393-.094l.1-.02.412-.081c.123-.023.249-.043.375-.063.072-.014.146-.024.221-.034.111-.017.221-.03.334-.044A.3.3,0,0,1,13.3-5.79c.107-.013.214-.026.324-.036.328-.037.668-.068,1.018-.088.107-.006.214-.013.321-.016q.408-.021.836-.031c.072,0,.146,0,.218,0,.143,0,.288,0,.437,0H29.04v-7.045H16.749Q0-13.012,0,0" fill="#fff"/>
      </g>
      <g id="Group_8" data-name="Group 8" transform="translate(344.88 -31.841)">
        <path id="Path_9" data-name="Path 9" d="M0,0V5.82H22.2a4.2,4.2,0,0,1-.992,2.27c-.039.047-.082.091-.12.134l-.126.131c-.056.054-.114.111-.175.165a3.7,3.7,0,0,1-.471.369,5.222,5.222,0,0,1-.826.487q-.3.147-.633.279c-.113.04-.226.084-.343.124-.233.084-.476.155-.73.222-.129.033-.259.067-.391.1s-.267.061-.407.088c-.112.023-.226.043-.342.063-.173.03-.345.061-.523.084-.146.024-.3.041-.447.061l-.032,0c-.146.02-.3.033-.448.047s-.325.03-.489.044c-.205.013-.409.026-.617.037s-.441.02-.668.023c-.265.01-.541.014-.82.014H0v7.045H12.294q16.745,0,16.747-13.01V-1.226H6.848a.3.3,0,0,1,.006-.054.729.729,0,0,1,.02-.124c.006-.05.016-.1.025-.151a3.494,3.494,0,0,1,.114-.456A.816.816,0,0,1,7.039-2.1,1.51,1.51,0,0,1,7.1-2.263c.013-.037.03-.078.045-.115a3.282,3.282,0,0,1,.172-.365,2.824,2.824,0,0,1,.169-.289,1.2,1.2,0,0,1,.078-.118A.2.2,0,0,1,7.6-3.2c.026-.037.052-.075.081-.112a4.114,4.114,0,0,1,.357-.409,2.015,2.015,0,0,1,.155-.151c.062-.054.124-.111.188-.161A2.732,2.732,0,0,1,8.6-4.211c.023-.02.045-.034.068-.051A6.309,6.309,0,0,1,9.84-4.92c.111-.05.221-.1.334-.141.137-.05.272-.1.412-.144.12-.041.246-.081.373-.118a.574.574,0,0,1,.081-.023c.12-.037.239-.067.366-.1h.007c.129-.033.259-.064.392-.094l.1-.02.412-.081c.123-.023.249-.043.375-.063.072-.014.147-.024.222-.034.11-.017.22-.03.333-.044A.309.309,0,0,1,13.3-5.79c.107-.013.214-.026.324-.036.328-.037.669-.068,1.018-.088.108-.006.214-.013.321-.016.272-.014.552-.024.837-.031.071,0,.146,0,.218,0,.142,0,.288,0,.437,0h12.59v-7.045H16.749Q0-13.012,0,0" fill="#fff"/>
      </g>
      <g id="Group_9" data-name="Group 9" transform="translate(302.121 -43.117)">
        <path id="Path_10" data-name="Path 10" d="M0,0Q-6.385,2.8-6.8,10.249c-.019.346-.03.7-.03,1.061l.03,5.813V28.85H0V17.123H22.17c.026-.4.039-.8.039-1.215V10.085H.016a.283.283,0,0,1,.007-.054.724.724,0,0,1,.019-.125c.007-.05.017-.1.026-.151A3.378,3.378,0,0,1,.182,9.3a.627.627,0,0,1,.026-.084,1.331,1.331,0,0,1,.058-.168c.013-.037.029-.077.045-.114a3.126,3.126,0,0,1,.172-.366,2.824,2.824,0,0,1,.169-.289A1.337,1.337,0,0,1,.73,8.16a.2.2,0,0,1,.039-.054C.794,8.07.82,8.033.85,8a4.112,4.112,0,0,1,.356-.41,2.031,2.031,0,0,1,.156-.151c.061-.054.123-.111.188-.161A2.422,2.422,0,0,1,1.771,7.1a.613.613,0,0,1,.067-.05,6.238,6.238,0,0,1,1.171-.658c.11-.051.22-.1.334-.142.136-.05.272-.1.411-.144.12-.04.247-.081.373-.117a.67.67,0,0,1,.081-.024c.121-.037.241-.067.367-.1h.007c.129-.033.258-.063.392-.094l.1-.02.413-.08c.122-.024.249-.044.376-.064.071-.014.145-.024.22-.034.11-.016.221-.03.335-.044a.284.284,0,0,1,.05-.006c.108-.014.215-.027.325-.037.328-.037.668-.067,1.019-.087.106-.007.213-.014.32-.017.273-.014.551-.024.836-.031.072,0,.146,0,.218,0,.142,0,.289,0,.438,0H22.209V-1.7H9.917A24.765,24.765,0,0,0,0,0" fill="#fff"/>
      </g>
      <g id="Group_10" data-name="Group 10" transform="translate(259.169 -59.087)">
        <path id="Path_11" data-name="Path 11" d="M0,0H-2.318l.109.057C8.6,4.578,15.67,16.058,15.67,29.508c0,13.138-6.742,24.4-17.136,29.126-.28.153-.563.3-.852.453H0s20.875-7.6,27.787-29.544C20.875,7.6,0,0,0,0" fill="#fff"/>
      </g>
      <g id="Group_11" data-name="Group 11" transform="translate(154.122 -44.825)">
        <path id="Path_12" data-name="Path 12" d="M0,0-2.289,13.627-3.44,20.474-10.1,10.286V10.27l-6.663,10.193-1.15-6.836L-20.2,0c-2.938.95-6.082,4.883-5.051,11.011l.642,3.822,1.2,7.129c1.031,6.129,5.275,8.732,8.349,8.6l1.016-1.537h0l1.065-1.616,2.88-4.357v-.011l0,0v.016l3.949,5.989.007,0,1.008,1.524c3.074.135,7.318-2.468,8.349-8.6l1.2-7.129.642-3.822C6.083,4.883,2.938.95,0,0" fill="#fff"/>
      </g>
      <g id="Group_12" data-name="Group 12" transform="translate(331.127 -37.744)">
        <path id="Path_13" data-name="Path 13" d="M0,0V23.521H.006A7,7,0,0,0,6.881,16.4V-7.12H6.874A7,7,0,0,0,0,0" fill="#fff"/>
      </g>
      <g id="Group_13" data-name="Group 13" transform="translate(77.239 -15.822)">
        <path id="Path_14" data-name="Path 14" d="M0,0S-5.992,5.293-20.874,5.843H-56.365C-71.247,5.293-77.239,0-77.239,0V.5c4.894,11.686,21.224,11.336,21.224,11.336h34.791S-4.894,12.185,0,.5Z" fill="#2b83c7"/>
      </g>
      <g id="Group_14" data-name="Group 14" transform="translate(27.663 -15.729)">
        <path id="Path_15" data-name="Path 15" d="M0,0H21.913c12.938-1.035,15.25-10.626,15.25-10.626v-.69c-5.728,4.83-14.077,4.45-14.077,4.45H-1.173s-8.349.38-14.077-4.45v.69S-12.938-1.035,0,0" fill="#2b83c7"/>
      </g>
      <g id="Group_15" data-name="Group 15" transform="translate(38.62 -27.441)">
        <path id="Path_16" data-name="Path 16" d="M0,0C19.462-6.351,26.206-25.53,26.206-25.53v-2.129c-.017.033-.034.065-.05.1C22.145-17.624,11.962-11.133.032-11.133c-11.655,0-21.642-6.194-25.837-15.744-.136-.257-.27-.517-.4-.782v2.129S-19.462-6.351,0,0" fill="#2b83c7"/>
      </g>
    </g>
  </g>
</svg>
