<svg id="Layer_1" data-name="Layer 1" xmlns="http://www.w3.org/2000/svg" xmlns:xlink="http://www.w3.org/1999/xlink" viewBox="0 0 835.47 96.07"><defs><style>.cls-1{fill:none;}.cls-2{clip-path:url(#clip-path);}.cls-3{fill:#fff;}</style><clipPath id="clip-path"><rect class="cls-1" width="835.47" height="96.07"/></clipPath></defs><title>wakizashi</title><g class="cls-2"><g id="Group_30" data-name="Group 30"><g id="Group_19" data-name="Group 19"><path id="Path_18" data-name="Path 18" class="cls-3" d="M358,.67h-2.6a23.52,23.52,0,0,0-23.51,23.49V95.72h2.63A23.5,23.5,0,0,0,358,72.23V3.3Zm-5.24,71.56a18.29,18.29,0,0,1-15.65,18.06V24.16a18.3,18.3,0,0,1,15.66-18Z"/></g><g id="Group_20" data-name="Group 20"><path id="Path_19" data-name="Path 19" class="cls-3" d="M618.89,33.91l.42-.54a8.92,8.92,0,0,1,.93-1,1.36,1.36,0,0,1,.24-.24l.14-.12a3.92,3.92,0,0,1,.32-.25l.15-.12a4.59,4.59,0,0,1,.44-.33l.21-.16a17.58,17.58,0,0,1,3.1-1.69c.3-.11.58-.24.88-.34s.72-.27,1.14-.39l1.12-.34.2-.05.7-.18.33-.09q.56-.14,1.11-.24l1.46-.28c.34-.07.7-.12,1.14-.2l.58-.09.91-.11h.2l.94-.11c1-.11,2-.18,3-.25.3,0,.6,0,.93,0,.8-.05,1.62-.07,2.52-.08H684.7V.74h-40c-35.48,0-53.47,13.72-53.47,40.76V61.14h66.59a9.12,9.12,0,0,1-1.56,2.31l-.56.6-.47.43a8.48,8.48,0,0,1-1.18.89A14.32,14.32,0,0,1,652,66.58c-.56.25-1.14.51-1.66.7l-1,.37c-.63.22-1.31.4-2,.58-.37.1-.74.19-1.17.27l-1.12.25c-.41.09-.64.11-1,.18-.49.06-1,.15-1.56.22-.28,0-.6.09-.89.12l-.51.07c-.41,0-.81.09-1.26.12l-1.4.13-1.86.1c-.63,0-1.26.06-2,.07s-1.6,0-2.4,0H591.28V95.7h40C666.74,95.7,684.74,82,684.74,55V35.24H618.13c.09-.17.2-.36.32-.63a4.62,4.62,0,0,1,.43-.71m-1.19-6.31-.49.41-.16.13c-.23.21-.45.41-.56.53a11.32,11.32,0,0,0-1.26,1.42l-.27.34a1.7,1.7,0,0,0-.26.34l-.23.34a10.76,10.76,0,0,0-.63,1,9.27,9.27,0,0,0-.63,1.31c-.07.14-.12.28-.18.4s-.17.48-.21.58a3,3,0,0,0-.12.39,12,12,0,0,0-.4,1.57,4.21,4.21,0,0,0-.09.49,4.34,4.34,0,0,0-.09.52l0,3.11h67.38V54.94c0,23.89-15.76,35.5-48.21,35.5H596.56V75.05h35.63c.87,0,1.75,0,2.52-.06s1.46,0,2.12-.07,1.26-.07,1.94-.11,1-.09,1.51-.12.91-.08,1.35-.14l.58-.06,1-.14q.84-.1,1.68-.27c.36,0,.75-.12,1.08-.19s.93-.18,1.32-.27l1.26-.31c.84-.22,1.65-.44,2.4-.7l1.14-.41c.74-.27,1.44-.58,2.09-.89a18.26,18.26,0,0,0,2.82-1.6,12.35,12.35,0,0,0,1.71-1.26l.68-.63.56-.58a4.08,4.08,0,0,0,.3-.31,14.82,14.82,0,0,0,3.66-8.06l.39-3H596.55V41.46c0-23.89,15.76-35.5,48.22-35.5h34.67V21.35H641.8c-.89,0-1.77,0-2.57.09l-1,.06c-1.1.05-2.18.15-3.18.26l-1.06.12h-.14c-.36,0-.73.07-1,.12s-.54.07-.74.11c-.4.07-.82.12-1.22.21l-1.26.22-.35.07c-.34.07-.63.14-1,.23l-.51.12c-.36.09-.7.17-1,.26a1.89,1.89,0,0,0-.34.09l-1.1.35c-.46.12-.9.28-1.42.47s-.77.3-1.12.45a23,23,0,0,0-4,2.21l-.3.22c-.24.17-.47.34-.71.54"/></g><g id="Group_21" data-name="Group 21"><path id="Path_20" data-name="Path 20" class="cls-3" d="M767.76.7V35.24H726.15V.33l-3,.39c-11.4,1.49-22.93,12.87-22.93,31.77V95.7h25.89V61.15h41.61V96.07l3-.38c11.4-1.51,22.93-12.9,22.93-31.78V.7Zm20.65,63.21c0,8.61-4.24,22.43-15.4,25.9V55.89H720.89V90.45H705.51v-58c0-8.62,4.24-22.45,15.38-25.92V40.5H773V6h15.4Z"/></g><g id="Group_22" data-name="Group 22"><path id="Path_21" data-name="Path 21" class="cls-3" d="M414.56,69.42l52.68-43.85V.68H405.1C386.52.68,375.31,12.41,373.85,24L373.47,27h54.94L373.82,70.79V95.7H436c18.61,0,29.79-11.73,31.27-23.32l.37-3Zm21.43,21H379.1V73.31L443.4,21.7H379.73c3.38-11.42,17-15.76,25.43-15.76h56.89V23.1l-62,51.59h61.38c-3.37,11.43-17,15.76-25.43,15.76"/></g><g id="Group_23" data-name="Group 23"><path id="Path_22" data-name="Path 22" class="cls-3" d="M164.57,21.37c-.88,0-1.76.05-2.56.09l-1,.05c-1.12,0-2.18.16-3.19.26l-1,.11-.32,0-.92.12-.76.11-1.21.2-1.63.3c-.31.07-.63.14-.94.23l-.53.12c-.35.08-.7.17-1,.26a2.14,2.14,0,0,0-.35.06l-1.09.38c-.46.13-.91.29-1.4.47s-.77.29-1.12.45a21.18,21.18,0,0,0-4,2.21l-.3.21c-.24.15-.47.35-.72.54L140,28l-.16.14c-.22.22-.43.4-.58.54a16.76,16.76,0,0,0-1.26,1.4c-.08.13-.17.23-.24.34a2.24,2.24,0,0,0-.27.34c-.07.11-.14.21-.22.36a8.87,8.87,0,0,0-.63,1,10.58,10.58,0,0,0-.63,1.26c-.07.16-.12.3-.18.44a2.86,2.86,0,0,0-.21.58c0,.12-.09.24-.13.38a11.89,11.89,0,0,0-.4,1.56c0,.18-.07.33-.09.49s-.07.35-.09.52l0,3.12h52.07V21.35H164.58m17.1,5.24v8.64H140.92c.09-.18.18-.37.32-.63a4.71,4.71,0,0,1,.34-.58l.49-.69c.27-.31.55-.63.93-1l.27-.25.15-.12a3.47,3.47,0,0,1,.29-.25l.15-.12a3.72,3.72,0,0,1,.45-.33l.2-.16a18.06,18.06,0,0,1,3.12-1.68c.28-.12.58-.25.84-.34s.74-.27,1.18-.4l1.12-.35.19-.05.7-.17L152,28l1.12-.27,1.44-.26,1.14-.2c.17,0,.35-.05.6-.09l.89-.09h.16l1-.11c.95-.1,1.93-.17,3-.24.29,0,.6,0,.93,0,.8-.05,1.62-.07,2.52-.09h.58Z"/></g><g id="Group_24" data-name="Group 24"><path id="Path_23" data-name="Path 23" class="cls-3" d="M207.46.7H167.52c-33.79,0-51.77,12.44-53.43,37.11,0,1.14,0,2.31,0,3.64V95.67H140V61.14h41.69V95.7h2.62a23.22,23.22,0,0,0,23.18-23.18Zm-5.24,71.82a18,18,0,0,1-15.31,17.73V55.89H134.72V90.45H119.31V41.31c0-1.15,0-2.27,0-3.27C120.8,16.44,136.56,6,167.53,6H202.2Z"/></g><g id="Group_25" data-name="Group 25"><path id="Path_24" data-name="Path 24" class="cls-3" d="M533.51,21.37c-.87,0-1.75.05-2.56.09l-1,.05c-1.1,0-2.19.16-3.19.26l-1,.11-.35,0-.91.12-.75.11-1.21.2-1.62.3c-.33.07-.63.14-1,.23l-.51.12c-.36.08-.69.17-1,.26a1.91,1.91,0,0,0-.33.06L517,23.7a13.43,13.43,0,0,0-1.39.47c-.39.14-.77.29-1.13.45a21.4,21.4,0,0,0-4,2.21l-.3.21a8.44,8.44,0,0,0-.72.54c-.24.19-.31.26-.47.4l-.18.14c-.23.22-.45.4-.56.52A15.4,15.4,0,0,0,507,30.06c-.11.13-.18.23-.26.34a2.24,2.24,0,0,0-.27.34l-.23.36c-.24.34-.47.73-.63,1s-.44.83-.63,1.26c-.05.16-.12.3-.17.44a4,4,0,0,0-.21.58c0,.1-.09.24-.13.38a13.72,13.72,0,0,0-.4,1.56c0,.18-.07.33-.09.49s-.07.35-.09.52l0,3.12h52.07V21.35H533.52m17.1,5.24v8.64H509.86c.09-.18.2-.37.32-.63a3.71,3.71,0,0,1,.34-.58l.51-.69a9.94,9.94,0,0,1,.93-1,3,3,0,0,1,.25-.25l.16-.12.28-.25.16-.12a4.46,4.46,0,0,1,.43-.33l.23-.16a16.58,16.58,0,0,1,3.1-1.68c.28-.12.58-.25.88-.36s.71-.26,1.14-.38l1.12-.35.19-.05.7-.17.34-.09,1.08-.25,1.47-.28,1.14-.19c.18,0,.37-.05.59-.09l.92-.1h.18l.94-.11c1-.1,1.94-.17,3-.24.29,0,.6,0,.92,0,.81-.05,1.63-.07,2.52-.09h.6Z"/></g><g id="Group_26" data-name="Group 26"><path id="Path_25" data-name="Path 25" class="cls-3" d="M536.48.7C502.69.7,484.72,13.14,483,37.81c0,1.14,0,2.31,0,3.47V95.7h25.92V61.14h41.69V95.7h2.63a23.21,23.21,0,0,0,23.17-23.18V.7Zm34.67,71.82a18,18,0,0,1-15.31,17.73V55.89H503.65V90.45H488.26V41.31c0-1.15,0-2.29,0-3.27C489.77,16.44,505.53,6,536.48,6h34.67Z"/></g><g id="Group_27" data-name="Group 27"><path id="Path_26" data-name="Path 26" class="cls-3" d="M832.82.67a23.5,23.5,0,0,0-23.48,23.49V95.72H812a23.51,23.51,0,0,0,23.49-23.49V.67Zm-2.61,71.56A18.28,18.28,0,0,1,814.59,90.3V24.16A18.28,18.28,0,0,1,830.21,6.1Z"/></g><g id="Group_28" data-name="Group 28"><path id="Path_27" data-name="Path 27" class="cls-3" d="M80.69.9,77.84,0,68,56.56l-3.78-5.63L51.9,32.75l-2.65-3.9L30.51,56.52,20.63,0,17.77.9C6.79,4.33-2.62,17.54.62,36.13L6.21,68.22c3.24,18.61,16.53,27.86,28,27.38l1.31-.06,2.52-3.69L49.19,75.61,59.08,90l1.49,2.14,2.34,3.42,1.31,0h.86c11.28,0,24-9.24,27.18-27.39l5.59-32.09C101.09,17.52,91.66,4.31,80.7.88m12,34.33L87.09,67.32c-2.83,16.39-14.1,22.61-21.37,23L51.91,70.16l-2.53-3.73-2.2,2.94L36.42,85.13l-3.6,5.27C20.15,90,13,76.27,11.45,67.37L5.88,35.26C4.39,26.78,6.19,12.44,16.59,7.1l11,63.14,21.69-32L70.94,70.27l11-63.21C92.33,12.4,94.13,26.75,92.65,35.23"/></g><g id="Group_29" data-name="Group 29"><path id="Path_28" data-name="Path 28" class="cls-3" d="M316.46.59H290.55v9.87c0,.86,0,1.68-.08,2.52a7,7,0,0,1,0,.91c-.05,1-.14,2-.25,3,0,.32-.07.63-.11.91V18c0,.31-.08.63-.13,1s-.05.42-.09.63-.11.72-.16,1.05l-.3,1.47c-.07.37-.15.74-.24,1.1l-.09.34c-.05.24-.11.47-.18.74l-.08.24c-.09.35-.21.7-.34,1.09s-.24.73-.36,1.1a8.22,8.22,0,0,1-.37.89,17.11,17.11,0,0,1-1.7,3.12l-.12.18c-.11.14-.21.3-.34.44l-.12.13c-.07.11-.16.2-.23.3l-.11.12a4.68,4.68,0,0,1-.34.37,10.27,10.27,0,0,1-1,.87l-.44.34c-.19.12-.58.38-.87.54a7.51,7.51,0,0,1-.76.36l-.42.18-.28.09-.25.07a4.83,4.83,0,0,1-1,.26l-30.76.2V.59h-2.63A23.33,23.33,0,0,0,223,23.87V95.61H249V61.05l30.1.13h.07l.63.12a6.35,6.35,0,0,1,1.14.29l.2.07.19.05.41.18a6.58,6.58,0,0,1,.84.42c.2.11.4.22.59.35l.67.49a11.25,11.25,0,0,1,1,.93l.22.24.16.18a3.11,3.11,0,0,1,.23.28l.12.16a2.87,2.87,0,0,1,.34.44l.14.17s0,0,0,0a17.18,17.18,0,0,1,1.68,3.1c.12.3.25.58.35.86s.26.74.38,1.17.23.68.35,1.11l0,.2c.07.23.12.46.18.68l.08.35c.09.35.23,1,.3,1.33l.23,1.22c.07.36.12.7.19,1.14,0,.18.05.36.09.58s.09.64.12.93v.18c0,.29.07.63.11,1,.1.95.19,1.93.24,3,0,.29,0,.59.05.94,0,.81.05,1.63.09,2.52v9.79h25.9v-7a62.32,62.32,0,0,0-14.17-40.5A62.34,62.34,0,0,0,316.46,7.63Zm-5.26,7a56.78,56.78,0,0,1-14.34,38.73l-1.62,1.76,1.62,1.77A56.79,56.79,0,0,1,311.2,88.62v1.77H295.8V85.66c0-.89-.05-1.75-.08-2.56,0-.34,0-.7-.05-1-.06-1.12-.16-2.19-.27-3.19,0-.35-.07-.67-.11-1l0-.33c0-.32-.09-.63-.12-.93a6.6,6.6,0,0,0-.11-.72c-.07-.42-.13-.82-.21-1.23l-.26-1.43,0-.2c-.07-.31-.14-.63-.23-.94l-.12-.55c-.09-.35-.17-.68-.26-1a2,2,0,0,0-.09-.35c-.12-.39-.23-.77-.35-1.11s-.29-.92-.45-1.38-.32-.78-.47-1.14a21.57,21.57,0,0,0-2.21-4.06l-.21-.3c-.18-.25-.35-.47-.55-.7s-.24-.32-.38-.47l-.18-.22a7,7,0,0,0-.52-.54,15.17,15.17,0,0,0-1.4-1.26l-.35-.26a1.59,1.59,0,0,0-.33-.25c-.11-.09-.23-.17-.35-.25a9.49,9.49,0,0,0-1-.63q-.62-.35-1.26-.63a3.12,3.12,0,0,0-.39-.15,2.8,2.8,0,0,0-.63-.23,2.4,2.4,0,0,0-.38-.12,11.3,11.3,0,0,0-1.71-.44,1.36,1.36,0,0,0-.29,0c-.18,0-.34,0-.47-.07a3.07,3.07,0,0,0-.6-.07l-20.43-.12H243.77V90.36H228.35V23.87A18.06,18.06,0,0,1,243.72,6V40.4l35.57-.09a4.46,4.46,0,0,0,.63-.05l.35,0,.49-.11a12.77,12.77,0,0,0,1.62-.4l.22-.07a5.88,5.88,0,0,0,.74-.26l.34-.14c.44-.19.87-.4,1.3-.63s.73-.44,1.15-.72a1.87,1.87,0,0,0,.29-.2c.12-.08.25-.17.36-.26l.28-.21A13.75,13.75,0,0,0,288.44,36l.63-.63.14-.18a3.72,3.72,0,0,0,.4-.49c.21-.23.39-.49.58-.74a3.16,3.16,0,0,0,.2-.27,23.53,23.53,0,0,0,2.19-4c.16-.38.31-.77.47-1.19s.32-.91.45-1.33.23-.76.35-1.16a2.29,2.29,0,0,0,.07-.28c.11-.35.2-.68.28-1.05l.12-.51c.09-.31.15-.63.22-1l.32-1.59c.07-.41.13-.83.18-1.16s.08-.53.12-.75.08-.68.12-1l.05-.36c0-.3.07-.58.08-.86.11-1,.21-2.12.27-3.2,0-.36.05-.7.05-1,0-.84.07-1.71.09-2.52V5.85h15.39Z"/></g></g></g></svg>